<?xml version="1.0" encoding="UTF-8"?>
<!DOCTYPE svg PUBLIC '-//W3C//DTD SVG 1.1//EN' 'http://www.w3.org/Graphics/SVG/1.1/DTD/svg11.dtd'>
<svg width="1056" height="816" xmlns="http://www.w3.org/2000/svg">
 <path d="M227.91 201.99C109.03 233.181 37.3 357.49 68.13 479.09c12.057 47.891 38.359 88.024 72.609 117.32-41.304-29.866-72.862-74.314-86.599-128.31-30.631-121.88 40.715-245.9 159.9-277.34 72.452-19.298 145.62.391 198.97 45.844-51.768-37.471-118.73-52.327-185.1-34.611" fill="#f9a721"/>
 <path d="M150.33 580.27h-3.988v11.354h-1.557V580.27h-3.991v-1.193h9.536zm15.194 11.354h-1.551v-11.229h-.055l-4.319 11.229h-1.012l-4.327-11.229h-.059v11.229h-1.551v-12.548h2.861l3.575 9.27h.059l3.52-9.27h2.857z" fill="#f9a721"/>
 <path d="M276.11 367.3c-7.952 0-18.025 2.916-18.025 13.52 0 9.012 7.687 11.932 19.881 15.908 23.33 7.423 53.553 22.266 53.553 57.791 0 42.151-31.553 60.972-66.013 60.972-24.39 0-49.043-9.542-64.421-26.242 8.752-10.608 17.5-21.475 26.246-32.079 8.219 7.688 25.451 14.845 38.175 14.845 9.013 0 17.234-5.301 17.234-17.496 0-9.012-11.137-13.788-19.885-16.434-33.138-10.077-53.284-20.15-53.284-57.264 0-40.031 34.46-57.261 66.804-57.261 19.073 0 40.459 7.98 53 20.39.185.183 5.697 5.541 5.697 5.8v25.505h-13.857v19.249c0-.277-17.674-16.717-17.882-16.905-6.973-6.299-18.473-10.297-27.223-10.297" fill="#4c4f52"/>
 <path d="M386.19 332.64v46.658h18.589l11.045 41.886H386.19v37.646c0 11.133 7.157 11.662 12.728 11.662 3.532 0 7.545-.48 10.209-.984.135-.025 9.945-1.745 9.945-2.087l-.005 43.367c-5.305 1.06-13.788 2.12-20.149 2.12-26.773 0-59.912-2.651-59.912-54.079v-37.646h-13.788v-41.886h13.788v-46.658zm36.986 179.05V379.14h43.48l1.06 27.038h.527c6.097-17.23 22.535-28.098 39.235-28.098 4.46 0 8.69.463 12.684 1.389.28.064 7.445 1.841 11.653 4.613-6.98 4.004-8.93 5.645-14.062 10.265 21.35 24.225 10.162 11.906 28.434 31.718 0 0-28.649-3.505-29.173-3.588-1.444-.228-4.724-.656-9.005-.656-11.929 0-30.753 2.916-37.644 19.616v70.253z" fill="#4c4f52"/>
 <path d="M593 463.17c-17.76.265-33.4 2.651-33.4 11.398 0 5.836 7.688 7.691 14.312 7.691 7.16 0 13.522-3.184 19.089-6.361zm-69.72-68.397c11.929-10.604 33.135-18.821 58.587-18.821 32.074 0 58.321 15.905 58.321 47.983v25.451c0 14.049 5.831 19.881 11.932 19.881.993 0 1.689 0 2.088-.112.132-.037 5.819-.6 12.593-5.835.36 18.46 5.151 27.885 7.623 30.975-4.944 8.033-18.65 15.026-18.757 15.07-.943.391-5.969 2.317-13.354 2.317-14.053 0-27.573-5.832-36.055-15.64h-.529c-11.668 10.602-25.717 18.824-41.887 18.824-22.799 0-49.576-9.812-49.576-41.094 0-30.485 38.175-39.762 78.735-41.091v-2.117c0-8.221-9.808-12.197-21.206-12.197-8.752 0-16.17 3.181-20.415 7.157z" fill="#4c4f52"/>
 <path d="M718.1 332.48v46.658h18.589l11.045 41.886H718.1v37.646c0 11.133 7.157 11.662 12.728 11.662 3.431 0 7.313-.452 9.974-.94.217-.04 8.067-1.481 12.125-2.72 2.58 26.285 18.114 39.082 18.114 39.082-12.113 3.216-20.506 4.961-20.734 5.005-5.329 1.015-13.38 1.989-19.48 1.989-26.773 0-59.912-2.651-59.912-54.079v-37.646h-13.788v-41.886h13.788v-46.658z" fill="#4c4f52"/>
 <path d="M889.55 379.38v132.55h-43.48l-1.06-21.475h-.527c-6.097 17.234-22.531 24.657-39.235 24.657-33.404 0-50.369-28.894-50.369-72.374v-63.357h47.184v63.357c0 18.029 6.631 29.958 19.62 29.958 9.281 0 15.374-3.711 20.679-11.664v-81.651zm95.198 46.386s-9.013-7.423-22.531-7.423c-4.772 0-9.546 1.325-9.546 4.772 0 3.445 10.341 4.772 22.27 8.748 15.378 5.301 33.403 15.378 33.403 41.355 0 27.038-19.085 41.887-52.224 41.887-32.318 0-51.689-16.016-54.925-18.91-.321-.287-7.444-6.82-7.444-6.82 0-49.955.075-13.64 0-53.992 0 .192 30.597 27.225 30.767 27.366 3.851 3.2 13.814 10.734 25.237 10.734 5.571 0 10.868-1.325 10.868-5.036 0-4.241-10.868-5.303-23.062-9.546-15.374-5.299-32.607-15.11-32.607-41.352 0-29.162 22.799-41.356 53.549-41.356 29.695 0 45.6 14.58 45.6 14.58zm29.999-45.506h.904c1.053 0 1.905-.351 1.905-1.204 0-.752-.552-1.255-1.756-1.255-.501 0-.853.051-1.053.1zm-.049 4.667h-1.907v-8.228c.753-.152 1.807-.252 3.16-.252 1.556 0 2.259.252 2.86.603.452.351.803 1.003.803 1.805 0 .904-.703 1.605-1.705 1.907v.101c.803.3 1.255.903 1.505 2.007.251 1.253.401 1.755.601 2.057h-2.057c-.249-.303-.401-1.055-.652-2.008-.149-.903-.652-1.304-1.705-1.304h-.903zm-5.068-4.316c0 3.663 2.709 6.573 6.423 6.573 3.612 0 6.271-2.911 6.271-6.523 0-3.663-2.659-6.623-6.321-6.623s-6.372 2.96-6.372 6.572m14.801 0c0 4.667-3.663 8.329-8.429 8.329-4.716 0-8.479-3.663-8.479-8.329 0-4.565 3.763-8.228 8.479-8.228 4.767 0 8.429 3.663 8.429 8.228" fill="#4c4f52"/>
</svg>
